name ../AP_Laxity/ap_45.mot
datacolumns   7
datarows 41
range   14.00000000 14.40000000
cursor 1.0 1.0 0.0
keys m_key
wrap
enforce_loops no
enforce_constraints no
calc_derivatives -1.000000
event_color 0.000000 0.000000 0.000000
endheader
            time femur_r_force_vx femur_r_force_vy femur_r_force_vz femur_r_force_px femur_r_force_py femur_r_force_pz 
     14.00000000      -1.57073851       1.57073851       0.00000000      -0.05123681      -0.49427285       0.00000000 
     14.01000000      -1.51919201       1.51919201       0.00000000      -0.05123681      -0.49427285       0.00000000 
     14.02000000      -1.46848690       1.46848690       0.00000000      -0.05123681      -0.49427285       0.00000000 
     14.03000000      -1.41862444       1.41862444       0.00000000      -0.05123681      -0.49427285       0.00000000 
     14.04000000      -1.36960587       1.36960587       0.00000000      -0.05123681      -0.49427285       0.00000000 
     14.05000000      -1.32143242       1.32143242       0.00000000      -0.05123681      -0.49427285       0.00000000 
     14.06000000      -1.27410528       1.27410528       0.00000000      -0.05123681      -0.49427285       0.00000000 
     14.07000000      -1.22762562       1.22762562       0.00000000      -0.05123681      -0.49427285       0.00000000 
     14.08000000      -1.18199461       1.18199461       0.00000000      -0.05123681      -0.49427285       0.00000000 
     14.09000000      -1.13721337       1.13721337       0.00000000      -0.05123681      -0.49427285       0.00000000 
     14.10000000      -1.09328303       1.09328303       0.00000000      -0.05123681      -0.49427285       0.00000000 
     14.11000000      -1.05020467       1.05020467       0.00000000      -0.05123681      -0.49427285       0.00000000 
     14.12000000      -1.00797936       1.00797936       0.00000000      -0.05123681      -0.49427285       0.00000000 
     14.13000000      -0.96660816       0.96660816       0.00000000      -0.05123681      -0.49427285       0.00000000 
     14.14000000      -0.92609209       0.92609209       0.00000000      -0.05123681      -0.49427285       0.00000000 
     14.15000000      -0.88643217       0.88643217       0.00000000      -0.05123681      -0.49427285       0.00000000 
     14.16000000      -0.84762937       0.84762937       0.00000000      -0.05123681      -0.49427285       0.00000000 
     14.17000000      -0.80968466       0.80968466       0.00000000      -0.05123681      -0.49427285       0.00000000 
     14.18000000      -0.77259899       0.77259899       0.00000000      -0.05123681      -0.49427285       0.00000000 
     14.19000000      -0.73637327       0.73637327       0.00000000      -0.05123681      -0.49427285       0.00000000 
     14.20000000      -0.70100841       0.70100841       0.00000000      -0.05123681      -0.49427285       0.00000000 
     14.21000000      -0.66650530       0.66650530       0.00000000      -0.05123681      -0.49427285       0.00000000 
     14.22000000      -0.63286478       0.63286478       0.00000000      -0.05123681      -0.49427285       0.00000000 
     14.23000000      -0.60008769       0.60008769       0.00000000      -0.05123681      -0.49427285       0.00000000 
     14.24000000      -0.56817484       0.56817484       0.00000000      -0.05123681      -0.49427285       0.00000000 
     14.25000000      -0.53712704       0.53712704       0.00000000      -0.05123681      -0.49427285       0.00000000 
     14.26000000      -0.50694506       0.50694506       0.00000000      -0.05123681      -0.49427285       0.00000000 
     14.27000000      -0.47762963       0.47762963       0.00000000      -0.05123681      -0.49427285       0.00000000 
     14.28000000      -0.44918150       0.44918150       0.00000000      -0.05123681      -0.49427285       0.00000000 
     14.29000000      -0.42160137       0.42160137       0.00000000      -0.05123681      -0.49427285       0.00000000 
     14.30000000      -0.39488993       0.39488993       0.00000000      -0.05123681      -0.49427285       0.00000000 
     14.31000000      -0.36904783       0.36904783       0.00000000      -0.05123681      -0.49427285       0.00000000 
     14.32000000      -0.34407573       0.34407573       0.00000000      -0.05123681      -0.49427285       0.00000000 
     14.33000000      -0.31997424       0.31997424       0.00000000      -0.05123681      -0.49427285       0.00000000 
     14.34000000      -0.29674397       0.29674397       0.00000000      -0.05123681      -0.49427285       0.00000000 
     14.35000000      -0.27438548       0.27438548       0.00000000      -0.05123681      -0.49427285       0.00000000 
     14.36000000      -0.25289934       0.25289934       0.00000000      -0.05123681      -0.49427285       0.00000000 
     14.37000000      -0.23228609       0.23228609       0.00000000      -0.05123681      -0.49427285       0.00000000 
     14.38000000      -0.21254623       0.21254623       0.00000000      -0.05123681      -0.49427285       0.00000000 
     14.39000000      -0.19368025       0.19368025       0.00000000      -0.05123681      -0.49427285       0.00000000 
     14.40000000      -0.17568862       0.17568862       0.00000000      -0.05123681      -0.49427285       0.00000000 
